<?xml version="1.0" standalone="no"?>
<svg xmlns="http://www.w3.org/2000/svg" viewBox="0 0 119 61" width="119" height="61"><g fill="#305699" color="#305699" transform="translate(45.024 0) scale(0.6458334) "><svg width="44.0" height="48.0" x="0.0" y="0.0" viewBox="0 0 44 48"><path fill="currentColor" fill-rule="evenodd" d="M26.592 7.876c-1.442 3.958-2.352 9.744-2.352 16.195 0 6.393.894 12.136 2.311 16.09-.691.939-1.454 1.46-2.256 1.46-3.13-.003-5.665-7.895-5.665-17.634 0-9.734 2.535-17.63 5.661-17.63.82.001 1.599.546 2.3 1.52M37.084 24.07c.003 6.693-1.663 12.123-3.716 12.123s-3.717-5.43-3.717-12.121c0-6.696 1.664-12.124 3.717-12.127 2.056.003 3.719 5.43 3.716 12.125M21.51 0c2.12.002 4.037 2.67 5.43 6.98 1.172-2.82 2.642-4.504 4.238-4.504 3.83-.005 6.936 9.668 6.934 21.594.002 11.926-3.106 21.597-6.937 21.596-1.607 0-3.089-1.711-4.265-4.573-1.389 4.256-3.296 6.882-5.397 6.884-4.257-.002-7.708-10.74-7.708-23.99C13.805 10.745 17.257 0 21.51 0zm-6.145 2.36c-5.194 4.504-8.651 12.467-8.651 21.535 0 9.067 3.455 17.03 8.655 21.531C6.292 41.661-.003 33.435 0 23.894 0 14.356 6.292 6.129 15.365 2.361zm26.647 14.91c1.098 0 1.986 2.9 1.988 6.483-.002 3.577-.891 6.48-1.99 6.48-1.096 0-1.985-2.9-1.987-6.482-.002-3.58.891-6.482 1.99-6.482z"></path></svg></g><line x1="45.87616666666666" y1="37" x2="72.58783333333332" y2="37" stroke="#0b005d" stroke-linecap="round"></line><path fill="#0b005d" fill-rule="nonzero" d="M8.04 17.52L8.04 17.52Q5.62 17.52 3.80 16.43Q1.99 15.34 1.00 13.37Q0 11.40 0 8.76L0 8.76Q0 6.14 0.96 4.19Q1.92 2.23 3.64 1.14Q5.35 0.05 7.63 0.05L7.63 0.05Q8.88 0.05 9.89 0.42Q10.90 0.79 11.62 1.51L11.62 1.51L11.86 0L13.03 0L13.97 5.59L12.67 5.88Q11.93 3.60 10.76 2.58Q9.60 1.56 7.68 1.56L7.68 1.56Q6.02 1.56 4.88 2.38Q3.74 3.19 3.16 4.79Q2.57 6.38 2.57 8.74L2.57 8.74Q2.57 10.85 3.29 12.46Q4.01 14.06 5.29 14.96Q6.58 15.86 8.28 15.86L8.28 15.86Q9.34 15.86 10.19 15.59Q11.04 15.31 11.77 14.71Q12.50 14.11 13.15 13.18L13.15 13.18L14.28 13.99Q13.63 15.07 12.66 15.86Q11.69 16.66 10.51 17.09Q9.34 17.52 8.04 17.52ZM23.28 17.18L17.06 17.18L17.06 16.03L18.46 15.82Q18.91 15.74 19.06 15.50Q19.20 15.26 19.20 14.59L19.20 14.59L19.20 2.88Q19.20 2.26 19.04 2.05Q18.89 1.85 18.41 1.75L18.41 1.75L17.06 1.54L17.06 0.38L23.95 0.38Q26.81 0.38 28.76 1.30Q30.72 2.21 31.73 3.96Q32.74 5.71 32.74 8.26L32.74 8.26Q32.74 10.34 32.10 12Q31.46 13.66 30.24 14.82Q29.02 15.98 27.26 16.58Q25.51 17.18 23.28 17.18L23.28 17.18ZM23.30 15.86L23.30 15.86Q25.08 15.86 26.36 15.42Q27.65 14.98 28.50 14.06Q29.35 13.15 29.76 11.75Q30.17 10.34 30.17 8.45L30.17 8.45Q30.17 6.24 29.44 4.73Q28.70 3.22 27.28 2.45Q25.85 1.68 23.76 1.68L23.76 1.68L21.58 1.68L21.58 15.74Q21.84 15.79 22.34 15.83Q22.85 15.86 23.30 15.86ZM41.69 17.18L35.42 17.18L35.42 16.03L36.82 15.82Q37.27 15.74 37.42 15.50Q37.56 15.26 37.56 14.59L37.56 14.59L37.56 2.88Q37.56 2.26 37.40 2.05Q37.25 1.85 36.77 1.75L36.77 1.75L35.42 1.54L35.42 0.38L41.54 0.38Q43.68 0.38 45.05 0.82Q46.42 1.25 47.09 2.12Q47.76 3 47.76 4.37L47.76 4.37Q47.76 5.26 47.32 6.04Q46.87 6.82 46.09 7.38Q45.31 7.94 44.28 8.18L44.28 8.18L44.28 8.30Q46.46 8.50 47.59 9.54Q48.72 10.58 48.72 12.41L48.72 12.41Q48.72 13.56 48.25 14.45Q47.78 15.34 46.88 15.95Q45.98 16.56 44.68 16.87Q43.37 17.18 41.69 17.18L41.69 17.18ZM41.64 15.86L41.64 15.86Q43.13 15.86 44.12 15.46Q45.12 15.05 45.64 14.27Q46.15 13.49 46.15 12.34L46.15 12.34Q46.15 10.73 45.04 9.91Q43.92 9.10 41.74 9.10L41.74 9.10Q41.11 9.10 40.69 9.12Q40.27 9.14 39.94 9.19L39.94 9.19L39.94 15.74Q40.20 15.79 40.66 15.83Q41.11 15.86 41.64 15.86ZM41.26 7.85L41.26 7.85Q43.13 7.85 44.16 6.96Q45.19 6.07 45.19 4.46L45.19 4.46Q45.19 3.46 44.80 2.84Q44.40 2.23 43.56 1.96Q42.72 1.68 41.33 1.68L41.33 1.68L39.94 1.68L39.94 7.80Q40.18 7.82 40.49 7.84Q40.80 7.85 41.26 7.85ZM56.71 17.52L56.71 17.52Q54.94 17.52 53.62 16.76Q52.30 16.01 51.59 14.63Q50.88 13.25 50.88 11.38L50.88 11.38Q50.88 9.31 51.62 7.81Q52.37 6.31 53.76 5.50Q55.15 4.68 57.05 4.68L57.05 4.68Q58.80 4.68 60.07 5.42Q61.34 6.17 62.04 7.54Q62.74 8.90 62.74 10.78L62.74 10.78Q62.74 12.82 61.99 14.34Q61.25 15.86 59.90 16.69Q58.56 17.52 56.71 17.52ZM57.05 16.03L57.05 16.03Q58.61 16.03 59.45 14.82Q60.29 13.61 60.29 11.35L60.29 11.35Q60.29 8.93 59.32 7.51Q58.34 6.10 56.66 6.10L56.66 6.10Q55.06 6.10 54.18 7.27Q53.30 8.45 53.30 10.66L53.30 10.66Q53.30 13.18 54.30 14.60Q55.30 16.03 57.05 16.03ZM70.20 17.52L70.20 17.52Q68.95 17.52 68.09 17.05Q67.22 16.58 66.79 15.67Q66.36 14.76 66.36 13.42L66.36 13.42L66.36 7.92Q66.36 7.06 66.22 6.79Q66.07 6.53 65.54 6.43L65.54 6.43L64.49 6.26L64.68 5.11L68.30 4.85L68.59 5.02L68.59 12.72Q68.59 13.87 68.81 14.54Q69.02 15.22 69.53 15.50Q70.03 15.79 70.90 15.79L70.90 15.79Q72.38 15.79 73.26 14.89Q74.14 13.99 74.14 12.46L74.14 12.46L74.14 7.92Q74.14 7.06 73.99 6.79Q73.85 6.53 73.32 6.43L73.32 6.43L72.24 6.26L72.43 5.11L76.08 4.85L76.37 5.02L76.37 14.76Q76.37 15.34 76.52 15.54Q76.68 15.74 77.14 15.84L77.14 15.84L78.34 16.06L78.34 17.18L74.62 17.33L74.28 15.38L74.21 15.38Q73.58 16.13 72.96 16.60Q72.34 17.06 71.66 17.29Q70.99 17.52 70.20 17.52ZM86.26 17.18L80.38 17.18L80.38 16.06L81.53 15.84Q81.91 15.77 82.03 15.54Q82.15 15.31 82.15 14.69L82.15 14.69L82.15 7.92Q82.15 7.06 82.01 6.78Q81.86 6.50 81.34 6.43L81.34 6.43L80.16 6.26L80.33 5.11L83.66 4.85L83.95 5.02L84.12 7.15L84.19 7.15Q84.62 6.38 85.28 5.83Q85.94 5.28 86.75 4.98Q87.55 4.68 88.39 4.68L88.39 4.68Q89.66 4.68 90.54 5.15Q91.42 5.62 91.87 6.53Q92.33 7.44 92.33 8.78L92.33 8.78L92.33 14.88Q92.33 15.41 92.47 15.60Q92.62 15.79 93.07 15.86L93.07 15.86L94.20 16.06L94.20 17.18L88.32 17.18L88.32 16.08L89.38 15.89Q89.83 15.79 89.96 15.60Q90.10 15.41 90.10 14.88L90.10 14.88L90.10 9.48Q90.10 8.35 89.87 7.68Q89.64 7.01 89.11 6.71Q88.58 6.41 87.70 6.41L87.70 6.41Q86.18 6.41 85.28 7.32Q84.38 8.23 84.38 9.74L84.38 9.74L84.38 14.78Q84.38 15.34 84.50 15.54Q84.62 15.74 84.98 15.82L84.98 15.82L86.26 16.08L86.26 17.18ZM101.71 17.52L101.71 17.52Q99.98 17.52 98.71 16.75Q97.44 15.98 96.74 14.58Q96.05 13.18 96.05 11.26L96.05 11.26Q96.05 9.26 96.78 7.79Q97.51 6.31 98.83 5.50Q100.15 4.68 101.90 4.68L101.90 4.68Q103.13 4.68 104.10 5.09Q105.07 5.50 105.64 6.20Q106.20 6.91 106.20 7.82L106.20 7.82Q106.20 8.54 105.77 8.96Q105.34 9.38 104.62 9.38L104.62 9.38Q104.18 9.38 103.86 9.24Q103.54 9.10 103.37 8.84Q103.20 8.59 103.20 8.23L103.20 8.23Q103.20 7.94 103.34 7.58Q103.49 7.22 103.87 6.60L103.87 6.60Q103.42 6.26 102.94 6.14Q102.46 6.02 101.71 6.02L101.71 6.02Q100.78 6.02 100.04 6.62Q99.31 7.22 98.89 8.29Q98.47 9.36 98.47 10.75L98.47 10.75Q98.47 13.03 99.50 14.35Q100.54 15.67 102.31 15.67L102.31 15.67Q103.22 15.67 104.02 15.35Q104.81 15.02 105.41 14.42L105.41 14.42L106.22 15.26Q105.46 16.30 104.26 16.91Q103.06 17.52 101.71 17.52ZM113.76 17.52L113.76 17.52Q112.01 17.52 110.72 16.75Q109.44 15.98 108.73 14.57Q108.02 13.15 108.02 11.26L108.02 11.26Q108.02 9.26 108.76 7.79Q109.49 6.31 110.81 5.50Q112.13 4.68 113.88 4.68L113.88 4.68Q115.87 4.68 117.08 5.84Q118.30 7.01 118.30 8.93L118.30 8.93Q118.30 9.43 118.21 10.03Q118.13 10.63 117.96 11.28L117.96 11.28L110.45 11.28Q110.52 13.39 111.54 14.57Q112.56 15.74 114.31 15.74L114.31 15.74Q115.22 15.74 116.09 15.36Q116.95 14.98 117.62 14.30L117.62 14.30L118.46 15.14Q117.94 15.86 117.18 16.40Q116.42 16.94 115.55 17.23Q114.67 17.52 113.76 17.52ZM110.45 9.94L110.45 9.94L115.97 9.94Q116.02 9.70 116.03 9.42Q116.04 9.14 116.04 8.83L116.04 8.83Q116.04 7.42 115.43 6.68Q114.82 5.95 113.62 5.95L113.62 5.95Q112.25 5.95 111.44 6.97Q110.64 7.99 110.45 9.94Z" transform="translate(0, 43)"></path></svg>